<?xml version="1.0" encoding="utf-8"?>
<!-- Generator: Adobe Illustrator 16.0.0, SVG Export Plug-In . SVG Version: 6.00 Build 0)  -->
<!DOCTYPE svg PUBLIC "-//W3C//DTD SVG 1.1//EN" "http://www.w3.org/Graphics/SVG/1.1/DTD/svg11.dtd">
<svg version="1.1" id="Layer_1" xmlns="http://www.w3.org/2000/svg" xmlns:xlink="http://www.w3.org/1999/xlink" x="0px" y="0px"
	 width="189.484px" height="189.484px" viewBox="0 0 189.484 189.484" enable-background="new 0 0 189.484 189.484"
	 xml:space="preserve">
<g>
	<path d="M73.008,136.86c0.438,4.402,1.732,8.535,4.524,12.043c2.83,3.555,6.578,4.438,10.816,2.785
		c0.746-0.291,1.021-0.653,1.046-1.477c0.07-2.441,0.178-4.887,0.426-7.314c0.814-7.959,3.872-14.898,9.564-20.602
		c3.404-3.41,6.947-6.691,10.183-10.253c2.916-3.209,5.512-6.71,8.218-10.108c0.714-0.896,0.919-1.955,0.916-3.129
		c-0.031-13.307-0.02-26.613-0.02-39.919c0-0.427,0-0.853,0-1.371c-2.448-0.374-4.834-0.666-7.19-1.109
		c-8.54-1.605-17.089-3.177-25.599-4.935c-4.404-0.91-8.77-1.97-13.298-1.918c-5.621,0.064-10.632,1.641-14.413,6.084
		c-1.985,2.331-3.379,5.006-4.356,7.883c-3.614,10.644-7.24,21.284-10.76,31.958c-2.666,8.084,3.136,15.961,11.651,15.97
		c7.157,0.006,14.313,0.001,21.47,0.001c0.428,0,0.856,0,1.45,0c-0.693,2.116-1.369,4.043-1.954,5.997
		C73.788,123.777,72.346,130.185,73.008,136.86z"/>
	<path d="M94.742,189.484c43.826,0,80.792-29.915,91.565-70.396h-19.608c-10.175,29.986-38.576,51.635-71.957,51.635
		c-41.896,0-75.981-34.086-75.981-75.982c0-41.895,34.086-75.981,75.981-75.981c12.615,0,24.517,3.099,34.997,8.563l0.005-0.003
		c0,0,1.171,0.568,3.086,1.702c10.025,5.835,18.604,13.896,25.05,23.502h-7.021h-8h-7.131v0.006c-2.168,0-4.336-0.004-6.505,0
		c-3.013,0.005-4.836,1.824-4.837,4.832c-0.004,14.604-0.004,29.207,0,43.81c0.001,3.062,1.823,4.878,4.912,4.885
		c2.143,0.005,4.286,0,6.43,0v0.009h37.631v-0.001h15.445c0.445-3.714,0.68-7.491,0.68-11.323C189.484,42.501,146.983,0,94.742,0
		S0,42.501,0,94.742C0,146.983,42.501,189.484,94.742,189.484z"/>
</g>
</svg>
