<?xml version="1.0" encoding="utf-8"?>
<!-- Generator: Adobe Illustrator 16.0.0, SVG Export Plug-In . SVG Version: 6.00 Build 0)  -->
<!DOCTYPE svg PUBLIC "-//W3C//DTD SVG 1.1//EN" "http://www.w3.org/Graphics/SVG/1.1/DTD/svg11.dtd">
<svg version="1.1" id="Layer_1" xmlns="http://www.w3.org/2000/svg" xmlns:xlink="http://www.w3.org/1999/xlink" x="0px" y="0px"
	 width="189.484px" height="189.485px" viewBox="0 0 189.484 189.485" enable-background="new 0 0 189.484 189.485"
	 xml:space="preserve">
<g>
	<path d="M116.477,52.624c-0.438-4.401-1.732-8.535-4.524-12.042c-2.83-3.555-6.578-4.438-10.816-2.785
		c-0.746,0.291-1.021,0.652-1.046,1.476c-0.07,2.44-0.178,4.887-0.426,7.314c-0.814,7.958-3.872,14.898-9.564,20.601
		c-3.404,3.41-6.947,6.692-10.183,10.254c-2.916,3.209-5.512,6.711-8.218,10.108c-0.714,0.896-0.919,1.955-0.916,3.13
		c0.031,13.306,0.02,26.611,0.02,39.918c0,0.427,0,0.854,0,1.371c2.448,0.373,4.834,0.666,7.19,1.109
		c8.54,1.605,17.089,3.177,25.599,4.935c4.404,0.909,8.77,1.97,13.298,1.918c5.621-0.064,10.632-1.642,14.413-6.084
		c1.985-2.331,3.379-5.006,4.356-7.883c3.614-10.644,7.24-21.284,10.76-31.959c2.666-8.084-3.136-15.962-11.651-15.969
		c-7.157-0.007-14.313-0.003-21.47-0.003c-0.428,0-0.856,0-1.45,0c0.693-2.115,1.369-4.042,1.954-5.996
		C115.696,65.708,117.139,59.3,116.477,52.624z"/>
	<path d="M94.742,0C50.916,0,13.95,29.915,3.177,70.396h19.608C32.96,40.409,61.361,18.76,94.742,18.76
		c41.896,0,75.981,34.087,75.981,75.981c0,41.896-34.086,75.981-75.981,75.981c-12.615,0-24.517-3.098-34.997-8.563l-0.005,0.005
		c0,0-1.171-0.568-3.086-1.703c-10.025-5.835-18.604-13.895-25.05-23.503h7.021h8h7.131v-0.006c2.168,0,4.336,0.004,6.505,0
		c3.013-0.005,4.836-1.824,4.837-4.832c0.004-14.604,0.004-29.206,0-43.81c-0.001-3.062-1.823-4.877-4.912-4.886
		c-2.143-0.004-4.286,0.001-6.43,0.001v-0.009H16.125v0.001H0.68C0.234,87.133,0,90.911,0,94.742
		c0,52.242,42.501,94.743,94.742,94.743s94.742-42.501,94.742-94.743C189.484,42.501,146.983,0,94.742,0z"/>
</g>
</svg>
